<?xml version="1.0" encoding="UTF-8"?>
<!DOCTYPE svg PUBLIC "-//W3C//DTD SVG 1.1//EN" "http://www.w3.org/Graphics/SVG/1.1/DTD/svg11.dtd">
<svg xmlns="http://www.w3.org/2000/svg" version="1.1" width="346px" height="350px" style="shape-rendering:geometricPrecision; text-rendering:geometricPrecision; image-rendering:optimizeQuality; fill-rule:evenodd; clip-rule:evenodd" xmlns:xlink="http://www.w3.org/1999/xlink">
<g><path style="opacity:1" fill="#e8eded" d="M -0.5,-0.5 C 114.833,-0.5 230.167,-0.5 345.5,-0.5C 345.5,116.167 345.5,232.833 345.5,349.5C 230.167,349.5 114.833,349.5 -0.5,349.5C -0.5,232.833 -0.5,116.167 -0.5,-0.5 Z"/></g>
<g><path style="opacity:1" fill="#819d70" d="M 160.5,45.5 C 163.287,44.5233 166.287,44.19 169.5,44.5C 166.443,53.5025 163.276,62.5025 160,71.5C 159.451,73.7596 158.284,75.4262 156.5,76.5C 151.881,75.6864 147.214,75.3531 142.5,75.5C 145.228,74.7948 148.061,74.1281 151,73.5C 154.981,64.0526 158.147,54.7193 160.5,45.5 Z"/></g>
<g><path style="opacity:1" fill="#799577" d="M 169.5,44.5 C 171.5,44.5 173.5,44.5 175.5,44.5C 176.032,47.4901 175.532,50.4901 174,53.5C 170.803,61.4225 167.803,69.4225 165,77.5C 164.583,78.756 163.75,79.4226 162.5,79.5C 160.426,78.4861 158.426,77.4861 156.5,76.5C 158.284,75.4262 159.451,73.7596 160,71.5C 163.276,62.5025 166.443,53.5025 169.5,44.5 Z"/></g>
<g><path style="opacity:1" fill="#89a465" d="M 160.5,45.5 C 158.147,54.7193 154.981,64.0526 151,73.5C 148.061,74.1281 145.228,74.7948 142.5,75.5C 140.708,75.366 139.042,75.6993 137.5,76.5C 140.34,67.4793 143.674,58.6459 147.5,50C 146.552,49.5172 145.552,49.3505 144.5,49.5C 149.497,47.2507 154.83,45.9174 160.5,45.5 Z"/></g>
<g><path style="opacity:1" fill="#728f80" d="M 175.5,44.5 C 178.876,45.0761 182.209,45.7428 185.5,46.5C 180.892,59.9933 175.892,73.3266 170.5,86.5C 167.808,84.1377 165.141,81.8044 162.5,79.5C 163.75,79.4226 164.583,78.756 165,77.5C 167.803,69.4225 170.803,61.4225 174,53.5C 175.532,50.4901 176.032,47.4901 175.5,44.5 Z"/></g>
<g><path style="opacity:1" fill="#6c8988" d="M 185.5,46.5 C 188.903,46.8511 192.237,47.5178 195.5,48.5C 192.167,57.8333 188.833,67.1667 185.5,76.5C 180.487,78.9976 176.154,82.4976 172.5,87C 171.563,87.6917 170.897,87.525 170.5,86.5C 175.892,73.3266 180.892,59.9933 185.5,46.5 Z"/></g>
<g><path style="opacity:1" fill="#607e98" d="M 195.5,48.5 C 200.463,49.9858 205.129,51.9858 209.5,54.5C 207.589,54.5743 206.422,55.5743 206,57.5C 204.025,63.096 201.858,68.596 199.5,74C 200.056,74.3826 200.389,74.8826 200.5,75.5C 195.438,75.2743 190.438,75.6076 185.5,76.5C 188.833,67.1667 192.167,57.8333 195.5,48.5 Z"/></g>
<g><path style="opacity:1" fill="#5674a4" d="M 209.5,54.5 C 213.054,55.7693 216.054,57.7693 218.5,60.5C 217.25,60.5774 216.417,61.244 216,62.5C 213.873,67.7486 212.04,73.0819 210.5,78.5C 207.27,77.192 203.936,76.192 200.5,75.5C 200.389,74.8826 200.056,74.3826 199.5,74C 201.858,68.596 204.025,63.096 206,57.5C 206.422,55.5743 207.589,54.5743 209.5,54.5 Z"/></g>
<g><path style="opacity:1" fill="#9db84c" d="M 128.5,57.5 C 128.938,57.4346 129.272,57.6012 129.5,58C 112.003,103.659 95.0028,149.492 78.5,195.5C 78.3893,196.117 78.056,196.617 77.5,197C 75.5,197.667 73.5,197.667 71.5,197C 69.7563,194.037 69.2563,190.871 70,187.5C 75.1801,172.134 83.1801,158.467 94,146.5C 94.4994,140.843 94.6661,135.176 94.5,129.5C 102.766,108.883 110.766,88.0499 118.5,67C 118.43,66.2352 118.097,65.7352 117.5,65.5C 120.601,62.0669 124.268,59.4002 128.5,57.5 Z"/></g>
<g><path style="opacity:1" fill="#4b69b1" d="M 218.5,60.5 C 222.456,62.7881 225.789,65.7881 228.5,69.5C 225.187,76.105 222.854,83.105 221.5,90.5C 218.542,85.8744 214.876,81.8744 210.5,78.5C 212.04,73.0819 213.873,67.7486 216,62.5C 216.417,61.244 217.25,60.5774 218.5,60.5 Z"/></g>
<g><path style="opacity:1" fill="#a5bf47" d="M 117.5,65.5 C 118.097,65.7352 118.43,66.2352 118.5,67C 110.766,88.0499 102.766,108.883 94.5,129.5C 92.2935,104.441 99.9602,83.1079 117.5,65.5 Z"/></g>
<g><path style="opacity:1" fill="#e8eded" d="M 142.5,75.5 C 147.214,75.3531 151.881,75.6864 156.5,76.5C 158.426,77.4861 160.426,78.4861 162.5,79.5C 165.141,81.8044 167.808,84.1377 170.5,86.5C 170.897,87.525 171.563,87.6917 172.5,87C 176.154,82.4976 180.487,78.9976 185.5,76.5C 190.438,75.6076 195.438,75.2743 200.5,75.5C 203.936,76.192 207.27,77.192 210.5,78.5C 214.876,81.8744 218.542,85.8744 221.5,90.5C 224.153,96.1259 226.486,101.793 228.5,107.5C 229.358,115.132 229.691,122.799 229.5,130.5C 229.302,138.951 228.302,147.284 226.5,155.5C 224.715,162.548 225.382,169.215 228.5,175.5C 228.595,177.786 229.262,179.786 230.5,181.5C 233,192.5 235.5,203.5 238,214.5C 238.667,223.5 238.667,232.5 238,241.5C 236.951,254.455 230.785,263.955 219.5,270C 208.683,275.037 197.349,278.204 185.5,279.5C 176.524,280.308 167.524,280.642 158.5,280.5C 157.432,279.566 156.099,279.232 154.5,279.5C 146.909,278.096 139.243,276.429 131.5,274.5C 129.147,272.657 126.48,271.323 123.5,270.5C 118.287,267.96 113.954,264.294 110.5,259.5C 106.925,252.447 104.592,245.113 103.5,237.5C 102.929,226.984 103.929,216.65 106.5,206.5C 109.476,193.066 112.976,179.732 117,166.5C 117.634,163.445 117.468,160.445 116.5,157.5C 116.044,151.939 115.044,146.606 113.5,141.5C 113.5,132.833 113.5,124.167 113.5,115.5C 114.749,101.504 120.415,89.6708 130.5,80C 132.577,78.295 134.91,77.1283 137.5,76.5C 139.042,75.6993 140.708,75.366 142.5,75.5 Z"/></g>
<g><path style="opacity:1" fill="#3e5dc0" d="M 228.5,69.5 C 232.888,73.929 236.554,78.929 239.5,84.5C 238.175,85.9526 237.342,85.6192 237,83.5C 233.867,91.4245 231.034,99.4245 228.5,107.5C 226.486,101.793 224.153,96.1259 221.5,90.5C 222.854,83.105 225.187,76.105 228.5,69.5 Z"/></g>
<g><path style="opacity:1" fill="#3856ca" d="M 239.5,84.5 C 241.108,87.3821 242.441,90.3821 243.5,93.5C 242.504,93.4142 241.671,93.7476 241,94.5C 236.007,106.304 232.174,118.304 229.5,130.5C 229.691,122.799 229.358,115.132 228.5,107.5C 231.034,99.4245 233.867,91.4245 237,83.5C 237.342,85.6192 238.175,85.9526 239.5,84.5 Z"/></g>
<g><path style="opacity:1" fill="#3250d2" d="M 243.5,93.5 C 244.899,96.6988 245.899,100.032 246.5,103.5C 245.5,103.5 244.5,103.5 243.5,103.5C 239.473,115.745 235.14,127.912 230.5,140C 230.833,141 231.167,142 231.5,143C 229.918,147.312 228.251,151.478 226.5,155.5C 228.302,147.284 229.302,138.951 229.5,130.5C 232.174,118.304 236.007,106.304 241,94.5C 241.671,93.7476 242.504,93.4142 243.5,93.5 Z"/></g>
<g><path style="opacity:1" fill="#bdd635" d="M 144.5,103.5 C 150.452,103.609 151.786,106.109 148.5,111C 143.632,110.711 142.299,108.211 144.5,103.5 Z"/></g>
<g><path style="opacity:1" fill="#354edd" d="M 193.5,103.5 C 199.488,103.664 200.821,106.164 197.5,111C 192.632,110.711 191.299,108.211 193.5,103.5 Z"/></g>
<g><path style="opacity:1" fill="#96b253" d="M 144.5,49.5 C 145.552,49.3505 146.552,49.5172 147.5,50C 143.674,58.6459 140.34,67.4793 137.5,76.5C 134.91,77.1283 132.577,78.295 130.5,80C 120.415,89.6708 114.749,101.504 113.5,115.5C 112.676,119.312 112.176,123.312 112,127.5C 104.201,148.09 96.7011,168.757 89.5,189.5C 88.209,189.263 87.209,189.596 86.5,190.5C 84.1416,192.678 81.4749,194.345 78.5,195.5C 95.0028,149.492 112.003,103.659 129.5,58C 129.272,57.6012 128.938,57.4346 128.5,57.5C 133.236,53.7985 138.57,51.1318 144.5,49.5 Z"/></g>
<g><path style="opacity:1" fill="#2e4adb" d="M 246.5,103.5 C 247.185,105.414 247.685,107.414 248,109.5C 248.5,121.495 248.667,133.495 248.5,145.5C 247.523,142.713 247.19,139.713 247.5,136.5C 247.666,131.821 247.499,127.155 247,122.5C 240.12,139.975 233.953,157.642 228.5,175.5C 225.382,169.215 224.715,162.548 226.5,155.5C 228.251,151.478 229.918,147.312 231.5,143C 231.167,142 230.833,141 230.5,140C 235.14,127.912 239.473,115.745 243.5,103.5C 244.5,103.5 245.5,103.5 246.5,103.5 Z"/></g>
<g><path style="opacity:1" fill="#3552d2" d="M 178.5,118.5 C 181.139,119.706 181.972,121.706 181,124.5C 177.497,128.352 173.33,130.018 168.5,129.5C 171.862,125.808 175.195,122.141 178.5,118.5 Z"/></g>
<g><path style="opacity:1" fill="#607d9a" d="M 173.5,114.5 C 172.761,114.369 172.094,114.536 171.5,115C 168.611,118.624 165.611,122.124 162.5,125.5C 160.623,124.341 160.123,122.674 161,120.5C 163.205,117.96 165.705,115.793 168.5,114C 170.387,113.22 172.054,113.387 173.5,114.5 Z"/></g>
<g><path style="opacity:1" fill="#516fac" d="M 173.5,114.5 C 175.027,114.427 176.027,115.094 176.5,116.5C 172.692,120.122 169.359,124.122 166.5,128.5C 164.77,127.974 163.436,126.974 162.5,125.5C 165.611,122.124 168.611,118.624 171.5,115C 172.094,114.536 172.761,114.369 173.5,114.5 Z"/></g>
<g><path style="opacity:1" fill="#405fbc" d="M 176.5,116.5 C 177.5,116.833 178.167,117.5 178.5,118.5C 175.195,122.141 171.862,125.808 168.5,129.5C 167.833,129.167 167.167,128.833 166.5,128.5C 169.359,124.122 172.692,120.122 176.5,116.5 Z"/></g>
<g><path style="opacity:1" fill="#2142e1" d="M 247.5,136.5 C 241.659,151.347 235.992,166.347 230.5,181.5C 229.262,179.786 228.595,177.786 228.5,175.5C 233.953,157.642 240.12,139.975 247,122.5C 247.499,127.155 247.666,131.821 247.5,136.5 Z"/></g>
<g><path style="opacity:1" fill="#90ab5e" d="M 113.5,115.5 C 113.5,124.167 113.5,132.833 113.5,141.5C 104.743,167.11 95.4098,192.443 85.5,217.5C 85.0841,208.724 85.7508,200.057 87.5,191.5C 87.3764,190.893 87.0431,190.56 86.5,190.5C 87.209,189.596 88.209,189.263 89.5,189.5C 96.7011,168.757 104.201,148.09 112,127.5C 112.176,123.312 112.676,119.312 113.5,115.5 Z"/></g>
<g><path style="opacity:1" fill="#1e3aef" d="M 247.5,136.5 C 247.19,139.713 247.523,142.713 248.5,145.5C 258.09,156.998 265.923,169.665 272,183.5C 274.084,187.959 273.917,192.293 271.5,196.5C 269.579,197.641 267.579,197.808 265.5,197C 262.5,194.833 259.5,192.667 256.5,190.5C 256.167,191 255.833,191.5 255.5,192C 258.942,209.489 257.775,226.656 252,243.5C 244.687,259.48 232.854,270.647 216.5,277C 220.553,280.606 222.886,285.106 223.5,290.5C 220.111,290.368 216.777,290.201 213.5,290C 210.631,299.006 206.131,299.84 200,292.5C 197.971,295.596 195.138,297.262 191.5,297.5C 191.032,292.63 191.698,287.964 193.5,283.5C 191.955,282.548 190.288,282.215 188.5,282.5C 187.5,282.5 186.5,282.5 185.5,282.5C 185.5,281.5 185.5,280.5 185.5,279.5C 197.349,278.204 208.683,275.037 219.5,270C 230.785,263.955 236.951,254.455 238,241.5C 238.667,232.5 238.667,223.5 238,214.5C 235.5,203.5 233,192.5 230.5,181.5C 235.992,166.347 241.659,151.347 247.5,136.5 Z"/></g>
<g><path style="opacity:1" fill="#8aa565" d="M 113.5,141.5 C 115.044,146.606 116.044,151.939 116.5,157.5C 106.833,182.167 97.1667,206.833 87.5,231.5C 86.4794,227.02 85.8127,222.353 85.5,217.5C 95.4098,192.443 104.743,167.11 113.5,141.5 Z"/></g>
<g><path style="opacity:1" fill="#839f6b" d="M 116.5,157.5 C 117.468,160.445 117.634,163.445 117,166.5C 112.976,179.732 109.476,193.066 106.5,206.5C 105.503,206.47 104.836,206.97 104.5,208C 100.482,219.914 95.8157,231.414 90.5,242.5C 89.0364,238.981 88.0364,235.314 87.5,231.5C 97.1667,206.833 106.833,182.167 116.5,157.5 Z"/></g>
<g><path style="opacity:1" fill="#7d9974" d="M 106.5,206.5 C 103.929,216.65 102.929,226.984 103.5,237.5C 102.875,244.043 100.875,250.043 97.5,255.5C 94.4074,251.653 92.0741,247.32 90.5,242.5C 95.8157,231.414 100.482,219.914 104.5,208C 104.836,206.97 105.503,206.47 106.5,206.5 Z"/></g>
<g><path style="opacity:1" fill="#759182" d="M 103.5,237.5 C 104.592,245.113 106.925,252.447 110.5,259.5C 108.818,260.827 107.485,262.494 106.5,264.5C 102.522,262.522 99.5216,259.522 97.5,255.5C 100.875,250.043 102.875,244.043 103.5,237.5 Z"/></g>
<g><path style="opacity:1" fill="#6a8694" d="M 110.5,259.5 C 113.954,264.294 118.287,267.96 123.5,270.5C 120.664,270.837 119.998,272.171 121.5,274.5C 115.631,272.404 110.631,269.071 106.5,264.5C 107.485,262.494 108.818,260.827 110.5,259.5 Z"/></g>
<g><path style="opacity:1" fill="#5c79a1" d="M 123.5,270.5 C 126.48,271.323 129.147,272.657 131.5,274.5C 129.001,278.845 127.001,283.511 125.5,288.5C 125.624,289.107 125.957,289.44 126.5,289.5C 124.735,290.461 122.735,290.795 120.5,290.5C 121.139,285.555 123.139,281.222 126.5,277.5C 124.971,276.237 123.305,275.237 121.5,274.5C 119.998,272.171 120.664,270.837 123.5,270.5 Z"/></g>
<g><path style="opacity:1" fill="#4e6bb0" d="M 131.5,274.5 C 139.243,276.429 146.909,278.096 154.5,279.5C 152.533,279.261 150.699,279.594 149,280.5C 147.393,284.49 145.893,288.49 144.5,292.5C 142.224,294.646 139.558,296.313 136.5,297.5C 133.097,296.426 131.097,294.093 130.5,290.5C 129.311,289.571 127.978,289.238 126.5,289.5C 125.957,289.44 125.624,289.107 125.5,288.5C 127.001,283.511 129.001,278.845 131.5,274.5 Z"/></g>
<g><path style="opacity:1" fill="#4764bc" d="M 154.5,279.5 C 156.099,279.232 157.432,279.566 158.5,280.5C 158.782,281.778 159.449,282.778 160.5,283.5C 156.985,283.288 153.652,283.288 150.5,283.5C 152.302,287.964 152.968,292.63 152.5,297.5C 148.825,297.5 146.159,295.833 144.5,292.5C 145.893,288.49 147.393,284.49 149,280.5C 150.699,279.594 152.533,279.261 154.5,279.5 Z"/></g>
<g><path style="opacity:1" fill="#3652d3" d="M 185.5,279.5 C 185.5,280.5 185.5,281.5 185.5,282.5C 186.5,282.5 187.5,282.5 188.5,282.5C 179.348,283.494 170.015,283.827 160.5,283.5C 159.449,282.778 158.782,281.778 158.5,280.5C 167.524,280.642 176.524,280.308 185.5,279.5 Z"/></g>
</svg>
